<svg width="24" height="25" viewBox="0 0 24 25" fill="none" xmlns="http://www.w3.org/2000/svg">
<g id="Frame">
<g id="Group">
<path id="Vector" d="M23.0001 12.974C23.0001 12.0511 22.9252 11.3776 22.7631 10.6792H12.2245V14.8447H18.4104C18.2858 15.8799 17.6123 17.4388 16.1157 18.4864L16.0947 18.6258L19.4268 21.2072L19.6576 21.2302C21.7778 19.2721 23.0001 16.3912 23.0001 12.974Z" fill="#4285F4"/>
<path id="Vector_2" d="M12.2245 23.9489C15.2551 23.9489 17.7993 22.9511 19.6576 21.23L16.1156 18.4862C15.1678 19.1472 13.8957 19.6087 12.2245 19.6087C9.25627 19.6087 6.73701 17.6507 5.83897 14.9443L5.70734 14.9555L2.24258 17.6369L2.19727 17.7629C4.04305 21.4295 7.83444 23.9489 12.2245 23.9489Z" fill="#34A853"/>
<path id="Vector_3" d="M5.83895 14.9445C5.602 14.2461 5.46486 13.4977 5.46486 12.7245C5.46486 11.9513 5.602 11.203 5.82649 10.5046L5.82021 10.3558L2.31203 7.63135L2.19725 7.68594C1.43651 9.20751 1 10.9162 1 12.7245C1 14.5329 1.43651 16.2415 2.19725 17.763L5.83895 14.9445Z" fill="#FBBC05"/>
<path id="Vector_4" d="M12.2245 5.84011C14.3322 5.84011 15.7539 6.75053 16.5646 7.51136L19.7324 4.41837C17.7869 2.60998 15.2551 1.5 12.2245 1.5C7.83444 1.5 4.04305 4.01925 2.19727 7.68589L5.8265 10.5045C6.73701 7.79818 9.25627 5.84011 12.2245 5.84011Z" fill="#EB4335"/>
</g>
</g>
</svg>
